<svg width="449" height="512" viewBox="0 0 449 512" fill="none" xmlns="http://www.w3.org/2000/svg">
<path d="M413.957 0H0V88.7862H29.4904V27.7778H384.467V73.4094L413.957 51.4471V0Z" fill="white"/>
<path d="M0.13923 426.976L29.4906 405.446L29.4906 424.937C29.4906 439.994 42.4494 452.201 58.4349 452.201H206.979V479.979H58.4349C30.4782 479.979 7.10692 461.486 1.35596 436.779L1.34214 436.72C0.934951 434.971 0.13923 431.554 0.13923 426.976Z" fill="white"/>
<path d="M206.979 512V480.26C216.741 476.166 225.528 472.738 235.557 468.825C241.24 466.607 247.327 464.232 254.211 461.494C277.969 452.045 301.526 451.804 316.754 451.804H354.143C370.128 451.804 383.087 439.598 383.087 424.541V396.209H412.578V424.541C412.578 454.939 386.416 479.582 354.143 479.582H308.356C293.588 479.895 283.657 480.705 268.934 486.521C254.211 492.338 235.608 499.97 206.979 512Z" fill="white"/>
<path d="M339.258 199.76V168.073H448.263V199.76H409.817V319.027H380.552V199.76H339.258Z" fill="white"/>
<path fill-rule="evenodd" clip-rule="evenodd" d="M189.86 168.073L189.86 319.027H158.736L158.736 168.073H189.86Z" fill="white"/>
<path fill-rule="evenodd" clip-rule="evenodd" d="M277.009 168.073V319.027H245.885V168.073H277.009Z" fill="white"/>
<path fill-rule="evenodd" clip-rule="evenodd" d="M0 168.073V319.027H31.1246V272.34H63.8055V241.216H31.1246V199.198H101.155V168.073H0Z" fill="white"/>
</svg>
